<svg width="24" height="24" viewBox="0 0 24 24" fill="none" xmlns="http://www.w3.org/2000/svg">
<path d="M0.5 0.5H23.5V23.5H0.5V0.5Z" stroke="#3A3A3B"/>
<path d="M8.7023 3.84C6.02147 3.84 3.83997 6.0215 3.83997 8.70233V15.4348C3.83997 18.1156 6.02147 20.2971 8.7023 20.2971H15.4348C18.1156 20.2971 20.2971 18.1156 20.2971 15.4348V8.70233C20.2971 6.0215 18.1156 3.84 15.4348 3.84H8.7023ZM8.7023 4.58805H15.4348C17.7113 4.58805 19.5491 6.42583 19.5491 8.70233V15.4348C19.5491 17.7113 17.7113 19.5491 15.4348 19.5491H8.7023C6.4258 19.5491 4.58802 17.7113 4.58802 15.4348V8.70233C4.58802 6.42583 6.4258 4.58805 8.7023 4.58805ZM16.5568 6.8322C16.3585 6.8322 16.1682 6.91102 16.0279 7.0513C15.8876 7.19159 15.8088 7.38186 15.8088 7.58026C15.8088 7.77865 15.8876 7.96892 16.0279 8.10921C16.1682 8.2495 16.3585 8.32831 16.5568 8.32831C16.7552 8.32831 16.9455 8.2495 17.0858 8.10921C17.2261 7.96892 17.3049 7.77865 17.3049 7.58026C17.3049 7.38186 17.2261 7.19159 17.0858 7.0513C16.9455 6.91102 16.7552 6.8322 16.5568 6.8322ZM12.0685 7.95428C9.80071 7.95428 7.95425 9.80074 7.95425 12.0686C7.95425 14.3364 9.80071 16.1829 12.0685 16.1829C14.3364 16.1829 16.1828 14.3364 16.1828 12.0686C16.1828 9.80074 14.3364 7.95428 12.0685 7.95428ZM12.0685 8.70233C13.9321 8.70233 15.4348 10.205 15.4348 12.0686C15.4348 13.9321 13.9321 15.4348 12.0685 15.4348C10.205 15.4348 8.7023 13.9321 8.7023 12.0686C8.7023 10.205 10.205 8.70233 12.0685 8.70233Z" fill="#3A3A3B"/>
</svg>
