<svg width="24" height="24" viewBox="0 0 24 24" fill="none" xmlns="http://www.w3.org/2000/svg">
<path d="M0.5 0.5H23.5V23.5H0.5V0.5Z" stroke="#3A3A3B"/>
<path d="M13.7296 10.8801C13.7323 10.8753 13.7378 10.8658 13.7463 10.8523C13.7633 10.8251 13.792 10.7818 13.8337 10.7276C13.9171 10.619 14.0511 10.4687 14.2448 10.3167C14.626 10.0174 15.257 9.69681 16.2384 9.69681C17.2466 9.69681 18.1274 10.041 18.7577 10.7063C19.3887 11.3724 19.8156 12.4103 19.8156 13.883V19.4755H17.0661V19.4697V19.4596V19.4494V19.4392V19.4288V19.4184V19.4079V19.3974V19.3867V19.376V19.3651V19.3542V19.3433V19.3322V19.3211V19.3099V19.2986V19.2872V19.2758V19.2643V19.2527V19.241V19.2293V19.2175V19.2056V19.1936V19.1816V19.1695V19.1573V19.1451V19.1328V19.1204V19.108V19.0955V19.0829V19.0702V19.0575V19.0447V19.0319V19.019V19.006V18.993V18.9799V18.9667V18.9535V18.9402V18.9268V18.9134V18.8999V18.8864V18.8728V18.8591V18.8454V18.8316V18.8178V18.8039V18.7899V18.7759V18.7619V18.7478V18.7336V18.7194V18.7051V18.6907V18.6764V18.6619V18.6474V18.6329V18.6183V18.6036V18.5889V18.5742V18.5594V18.5445V18.5297V18.5147V18.4997V18.4847V18.4696V18.4545V18.4393V18.4241V18.4088V18.3935V18.3782V18.3628V18.3474V18.3319V18.3164V18.3008V18.2852V18.2696V18.2539V18.2382V18.2224V18.2066V18.1908V18.1749V18.159V18.1431V18.1271V18.1111V18.095V18.079V18.0628V18.0467V18.0305V18.0143V17.9981V17.9818V17.9655V17.9491V17.9328V17.9164V17.9V17.8835V17.867V17.8505V17.834V17.8174V17.8008V17.7842V17.7676V17.7509V17.7343V17.7176V17.7008V17.6841V17.6673V17.6505V17.6337V17.6168V17.6V17.5831V17.5662V17.5493V17.5324V17.5154V17.4985V17.4815V17.4645V17.4475V17.4304V17.4134V17.3963V17.3792V17.3622V17.3451V17.328V17.3108V17.2937V17.2766V17.2594V17.2422V17.2251V17.2079V17.1907V17.1735V17.1563V17.1391V17.1219V17.1046V17.0874V17.0702V17.0529V17.0357V17.0184V17.0012V16.9839V16.9667V16.9494V16.9322V16.9149V16.8977V16.8804V16.8632V16.8459V16.8287V16.8114V16.7942V16.7769V16.7597V16.7425V16.7252V16.708V16.6908V16.6736V16.6564V16.6392V16.622V16.6048V16.5876V16.5705V16.5533V16.5362V16.5191V16.5019V16.4848V16.4677V16.4507V16.4336V16.4165V16.3995V16.3825V16.3655V16.3485V16.3315V16.3145V16.2976V16.2806V16.2637V16.2468V16.23V16.2131V16.1963V16.1795V16.1627V16.1459V16.1292V16.1124V16.0957V16.0791V16.0624V16.0458V16.0292V16.0126V15.996V15.9795V15.963V15.9465V15.9301V15.9137V15.8973V15.8809V15.8646V15.8483V15.832V15.8158V15.7996V15.7834V15.7673V15.7512V15.7351V15.7191V15.7031V15.6871V15.6712V15.6553V15.6394V15.6236V15.6078V15.592V15.5763V15.5607V15.545V15.5294V15.5139V15.4984V15.4829V15.4675V15.4521V15.4368V15.4215V15.4062V15.391V15.3759V15.3607V15.3457V15.3306V15.3157V15.3007V15.2859V15.271V15.2562V15.2415V15.2268V15.2122V15.1976V15.1831V15.1686V15.1542V15.1398V15.1255V15.1112V15.097V15.0828V15.0687V15.0547V15.0407V15.0267V15.0129V14.999V14.9853V14.9716V14.9579V14.9443V14.9308V14.9173V14.9039V14.8906V14.8773V14.8641V14.8509V14.8379V14.8248V14.8119V14.799V14.7861V14.7734V14.7607V14.748V14.7355V14.723V14.7105V14.6982V14.6859V14.6737V14.6615V14.6494V14.6374V14.6255V14.6136V14.6018V14.5901V14.5785V14.5669V14.5554V14.544V14.5326V14.5214V14.5102V14.4991V14.488V14.4771V14.4662V14.4554V14.4447V14.434V14.4235V14.413V14.4026V14.3923V14.382V14.3719V14.3618V14.3518V14.3419V14.3321V14.3224V14.3128V14.3032V14.2937V14.2843V14.2751V14.2658V14.2567V14.2477V14.2388V14.2299V14.2212V14.2125V14.2039V14.1955V14.1871V14.1788V14.1706V14.1625V14.1545V14.1465V14.1387V14.131V14.1234V14.1158V14.1084V14.1011V14.0938V14.0867V14.0797V14.0727V14.0659V14.0592V14.0525V14.046V14.0396V14.0332V14.027V14.0209V14.0149V14.009V14.0032V13.9975V13.9919V13.9864V13.981V13.9758V13.9706V13.9655V13.9606V13.9558V13.9511V13.9464V13.9419V13.9376V13.9333V13.9291V13.9251V13.9211V13.9173V13.9136V13.91V13.9066V13.9032V13.9V13.8968V13.8938V13.8909V13.8882V13.8855V13.883C17.0661 13.663 17.0578 13.0905 16.7896 12.5614C16.651 12.288 16.4389 12.0175 16.1195 11.8179C15.7994 11.6178 15.4026 11.5082 14.9259 11.5082C14.0223 11.5082 13.458 11.9634 13.1461 12.5015C12.8529 13.0072 12.7857 13.5718 12.7857 13.883V13.8861V13.8893V13.8926V13.896V13.8995V13.9032V13.9069V13.9108V13.9148V13.9189V13.9231V13.9274V13.9319V13.9364V13.9411V13.9458V13.9507V13.9557V13.9608V13.9659V13.9712V13.9766V13.9821V13.9878V13.9935V13.9993V14.0052V14.0113V14.0174V14.0236V14.0299V14.0364V14.0429V14.0496V14.0563V14.0631V14.0701V14.0771V14.0842V14.0914V14.0988V14.1062V14.1137V14.1213V14.129V14.1368V14.1447V14.1527V14.1608V14.1689V14.1772V14.1856V14.194V14.2026V14.2112V14.2199V14.2287V14.2376V14.2466V14.2557V14.2648V14.2741V14.2834V14.2928V14.3023V14.3119V14.3216V14.3313V14.3412V14.3511V14.3611V14.3712V14.3814V14.3916V14.402V14.4124V14.4229V14.4334V14.4441V14.4548V14.4656V14.4765V14.4875V14.4985V14.5096V14.5208V14.5321V14.5434V14.5548V14.5663V14.5778V14.5895V14.6012V14.613V14.6248V14.6367V14.6487V14.6608V14.6729V14.6851V14.6973V14.7097V14.7221V14.7345V14.7471V14.7597V14.7723V14.785V14.7978V14.8107V14.8236V14.8366V14.8496V14.8627V14.8759V14.8891V14.9024V14.9158V14.9292V14.9427V14.9562V14.9698V14.9834V14.9971V15.0109V15.0247V15.0386V15.0525V15.0665V15.0805V15.0946V15.1087V15.1229V15.1372V15.1515V15.1658V15.1802V15.1947V15.2092V15.2238V15.2384V15.253V15.2677V15.2825V15.2972V15.3121V15.327V15.3419V15.3569V15.3719V15.387V15.4021V15.4173V15.4325V15.4477V15.463V15.4783V15.4937V15.5091V15.5245V15.54V15.5556V15.5711V15.5867V15.6024V15.6181V15.6338V15.6495V15.6653V15.6811V15.697V15.7129V15.7288V15.7448V15.7608V15.7768V15.7929V15.809V15.8251V15.8412V15.8574V15.8736V15.8899V15.9062V15.9225V15.9388V15.9551V15.9715V15.9879V16.0044V16.0208V16.0373V16.0538V16.0704V16.0869V16.1035V16.1201V16.1367V16.1534V16.17V16.1867V16.2034V16.2202V16.2369V16.2537V16.2705V16.2873V16.3041V16.3209V16.3378V16.3547V16.3715V16.3884V16.4054V16.4223V16.4392V16.4562V16.4732V16.4901V16.5071V16.5241V16.5411V16.5582V16.5752V16.5922V16.6093V16.6264V16.6434V16.6605V16.6776V16.6947V16.7118V16.7289V16.746V16.7631V16.7802V16.7973V16.8145V16.8316V16.8487V16.8658V16.883V16.9001V16.9172V16.9344V16.9515V16.9686V16.9857V17.0029V17.02V17.0371V17.0542V17.0713V17.0884V17.1055V17.1226V17.1397V17.1568V17.1739V17.191V17.208V17.2251V17.2421V17.2592V17.2762V17.2932V17.3102V17.3272V17.3442V17.3612V17.3781V17.3951V17.412V17.4289V17.4458V17.4627V17.4796V17.4964V17.5133V17.5301V17.5469V17.5637V17.5805V17.5972V17.6139V17.6307V17.6474V17.664V17.6807V17.6973V17.7139V17.7305V17.7471V17.7636V17.7801V17.7966V17.8131V17.8295V17.8459V17.8623V17.8787V17.895V17.9113V17.9276V17.9438V17.9601V17.9762V17.9924V18.0085V18.0246V18.0407V18.0567V18.0727V18.0887V18.1046V18.1205V18.1364V18.1522V18.168V18.1838V18.1995V18.2152V18.2308V18.2465V18.262V18.2776V18.2931V18.3085V18.3239V18.3393V18.3546V18.3699V18.3852V18.4004V18.4156V18.4307V18.4458V18.4608V18.4758V18.4907V18.5056V18.5205V18.5353V18.55V18.5648V18.5794V18.594V18.6086V18.6231V18.6376V18.652V18.6663V18.6806V18.6949V18.7091V18.7233V18.7374V18.7514V18.7654V18.7793V18.7932V18.807V18.8208V18.8345V18.8482V18.8618V18.8753V18.8888V18.9022V18.9156V18.9289V18.9421V18.9553V18.9684V18.9815V18.9945V19.0074V19.0203V19.0331V19.0458V19.0585V19.0711V19.0836V19.0961V19.1085V19.1209V19.1331V19.1453V19.1575V19.1695V19.1815V19.1935V19.2053V19.2171V19.2288V19.2405V19.252V19.2635V19.275V19.2863V19.2976V19.3088V19.3199V19.331V19.3419V19.3528V19.3637V19.3744V19.3851V19.3957V19.4062V19.4166V19.4269V19.4372V19.4474V19.4575V19.4675V19.4755H10.0362V9.69681H12.7857V10.6498L13.7282 10.8788C13.7297 10.8796 13.7297 10.8797 13.7297 10.8797L13.7296 10.8801ZM13.7296 10.8801L13.7295 10.8802L13.729 10.881L13.7283 10.8823L13.7277 10.8835C13.7277 10.8836 13.7283 10.8824 13.7296 10.8801ZM7.13745 9.55692V16.6053V19.4755H4.33997V9.55692H7.13745ZM5.73871 7.44949C4.86738 7.44949 4.33997 6.85784 4.33997 6.14538C4.33997 5.44999 4.84968 4.88858 5.73871 4.88858C6.19295 4.88858 6.52699 5.03772 6.75048 5.25311C6.97348 5.46802 7.11679 5.77817 7.13741 6.15719C7.13466 6.53006 7.00162 6.84573 6.77959 7.06782C6.55723 7.29024 6.21469 7.44949 5.73871 7.44949Z" stroke="#3A3A3B"/>
</svg>
